<?xml version="1.0" encoding="UTF-8" standalone="no"?>
<!DOCTYPE svg PUBLIC "-//W3C//DTD SVG 1.1//EN" "http://www.w3.org/Graphics/SVG/1.1/DTD/svg11.dtd">
<svg width="100%" height="100%" viewBox="0 0 292 478" version="1.1" xmlns="http://www.w3.org/2000/svg" xmlns:xlink="http://www.w3.org/1999/xlink" xml:space="preserve" xmlns:serif="http://www.serif.com/" style="fill-rule:evenodd;clip-rule:evenodd;stroke-linejoin:round;stroke-miterlimit:2;">
    <g transform="matrix(1,0,0,1,-146,-95)">
        <g id="path5220" transform="matrix(1.46491,-1.44963e-31,1.44963e-31,-1.46491,-38.2514,681.138)">
            <path d="M200.059,399.47C194.313,399.373 188.68,397.736 184.559,394.56C180.16,391.166 177.43,386.072 177.957,378.943L177.957,378.935L177.961,378.927C178.039,377.431 178.176,375.412 178.125,373.455C178.07,371.494 177.871,369.595 177.09,368.205L177.063,368.154L177.023,368.107C175.203,365.795 173.668,364.076 173.254,363.607C176.23,360.463 180.758,357.17 184.828,354.771L185.219,354.541L184.91,347.642L159.598,336.967C159.598,336.967 159.594,336.967 159.594,336.963C157.688,336.084 156.504,335.088 155.5,332.205L155.496,332.197L125.777,237.763C126.281,237.424 127.441,236.677 129.129,236.029L129.691,235.814L129.602,235.217C129.461,234.283 128.953,233.115 128.484,232.084C128.031,231.084 127.629,230.314 127.602,230.263L127.602,230.259C125.984,226.361 126.684,220.275 127.246,215.74C128.105,213.666 129.012,212.65 130.473,211.416C133.82,210.92 136.93,211.861 139.336,213.174L139.809,222.377C139.57,222.564 139.301,222.728 138.953,222.912C138.734,223.025 138.496,223.146 138.27,223.42C138.043,223.693 137.938,224.197 138.059,224.572C138.051,224.549 138.117,224.857 138.16,225.189C138.203,225.521 138.25,225.931 138.293,226.326C138.375,227.111 138.438,227.842 138.438,227.842L138.488,228.435L142.129,228.955C147.637,244.943 153.031,259.998 160.684,281.74C162.012,286.771 162.809,289.029 162.809,289.029L164.266,288.767L163.992,269.759L163.992,269.748C163.992,267.033 163.781,264.025 163.406,262.666C161.535,253.814 159.492,246.17 157.23,236.486C156.805,234.334 155.984,228.439 155.688,219.443L155.688,219.439C155.379,210.193 154.73,195.318 154.711,185.4L159.227,184.361L158.98,176.951L158.98,176.943C159,169.103 159.195,160.802 160.023,151.326C160.73,143.424 161.289,134.549 162.137,124.849L162.141,124.838C163.344,112.877 163.941,102.904 164.574,90.009L164.613,89.217L153.766,89.31C153.691,89.131 153.613,88.869 153.543,88.572C153.398,87.974 153.301,87.236 153.301,86.756C153.301,85.998 153.391,85.513 153.676,84.951C153.957,84.388 154.473,83.728 155.348,82.802C155.949,82.162 156.559,81.58 157.035,81.17C157.277,80.967 157.488,80.802 157.629,80.709C157.68,80.674 157.703,80.662 157.73,80.646L157.855,80.646L158.059,80.494C159.902,79.084 161.352,77.408 163.051,75.861L163.152,75.861L163.371,75.541C163.988,74.631 164.273,74.299 164.652,74.131C165.035,73.963 165.742,73.904 167.184,73.9C168.91,73.9 170.594,74.099 171.953,74.427C173.313,74.756 174.352,75.259 174.723,75.631C174.738,75.65 175.004,76.185 175.129,77.427C175.254,78.67 175.316,80.58 175.332,83.384C175.371,89.412 176.117,96.752 176.82,103.326C178.133,116.994 180.016,129.748 181.082,143.267L181.082,143.283C182.359,156.256 182.629,166.638 181.891,173.236C181.691,175.006 181.473,176.642 181.316,177.853C181.238,178.459 181.176,178.959 181.137,179.322C181.117,179.506 181.102,179.654 181.098,179.779C181.094,179.842 181.09,179.896 181.094,179.97C181.098,180.006 181.098,180.049 181.113,180.119C181.125,180.189 181.109,180.299 181.324,180.513L181.551,180.744L192.758,180.373L192.699,179.588C192.699,179.588 191.934,169.744 191.496,164.252L191.496,164.244C189.82,146.99 191.344,126.513 191.855,108.431L191.855,108.424C191.965,103.24 191.93,100.349 191.809,98.525C191.688,96.697 191.465,95.896 191.254,95.092C190.828,93.459 190.293,91.931 189.563,90.345C189.004,88.302 188.668,86.799 188.871,85.939C188.977,85.502 189.164,85.205 189.594,84.892C190.027,84.584 190.734,84.291 191.785,84.064L191.789,84.064C194.973,83.392 198.5,81.982 201.469,79.232L201.473,79.228L201.477,79.22C203.535,77.259 205.191,76.896 207.73,77.81C210.254,78.717 212.5,79.736 214.57,80.627L214.551,82.326C214.516,83.552 214.344,84.404 214.094,84.963C213.844,85.521 213.547,85.802 213.094,86.017C212.188,86.455 210.492,86.447 208.141,86.455L207.883,86.459L207.68,86.619C207.68,86.619 204.406,89.092 203.258,92.111L203.191,92.291L203.215,92.478C206.285,116.041 208.996,134.021 211.949,156.814C212.457,166.892 211.844,174.873 211.457,180.697L211.414,181.342L212.047,181.478C216.945,182.541 221.809,183.33 226.426,185.611C226.348,186.037 226.273,186.459 226.125,187.427C225.926,188.728 225.664,190.478 225.355,192.572C224.738,196.759 223.938,202.302 223.09,208.244C221.391,220.127 219.5,233.603 218.496,241.033C216.699,254.365 215.617,258.572 215.965,286.435L217.43,286.65C222.031,272.064 228.621,243.459 233.91,223.392C235.621,222.978 237.816,222.334 237.816,222.334L238.348,222.17L238.348,221.611C238.332,218.759 238.875,215.791 238.891,215.713C239.07,215.099 239.887,214.08 240.949,213.193C242.016,212.302 243.305,211.506 244.262,211.076L244.68,210.888L245,205.146C246.852,191.607 250.477,180.056 262.02,169.529L262.41,169.174L262.207,168.689C256.918,156.041 252.918,144.111 249.855,128.427C253.84,126.873 259.297,124.127 259.297,124.127L260.082,123.728L259.563,123.017C256.762,119.185 253.809,115.467 253.824,110.525C253.898,105.666 255.582,103.494 257.227,98.978L257.242,98.935L257.254,98.892C258.094,95.267 258.309,88.853 257.328,85.478L257.199,85.041L256.754,84.951C256.754,84.951 255.949,84.791 255.07,84.525C254.633,84.388 254.18,84.228 253.82,84.064C253.465,83.896 253.215,83.693 253.195,83.666L253.191,83.666C253.203,83.681 253.031,83.263 252.941,82.752C252.852,82.236 252.789,81.599 252.746,80.986C252.688,80.111 252.691,79.717 252.684,79.314L265.957,78.08C265.957,78.08 266.129,78.049 266.574,78.185C267.02,78.318 267.668,78.623 268.406,79.361C269.352,80.322 269.727,80.81 270.387,81.994C270.738,87.904 270.645,91.291 270.441,93.365C270.234,95.455 269.914,96.263 269.824,97.349C269.301,101.357 269.441,106.396 269.441,106.396L269.445,106.439L269.449,106.486C270.285,112.064 273.176,116.217 276.781,120.322L277.02,120.588L280.434,120.467L279.859,119.404C277.793,115.568 276.332,112.049 276.332,107.451C276.332,104.967 277.547,101.849 277.559,101.826C278.746,99.502 280.109,96.326 281.535,94.416L281.52,94.435C282.461,93.256 282.762,91.572 282.727,89.759C282.688,87.947 282.289,85.99 281.621,84.244C281.449,83.795 281.117,83.533 280.797,83.345C280.48,83.158 280.145,83.033 279.832,82.943C279.527,82.853 279.473,82.861 279.254,82.822C279.215,82.49 279.152,82.076 279.125,81.306C279.105,80.787 279.109,80.259 279.16,79.881C279.184,79.693 279.219,79.541 279.246,79.467C279.254,79.447 279.254,79.451 279.258,79.447C279.234,79.467 279.457,79.338 279.789,79.244C280.125,79.15 280.582,79.052 281.109,78.97C282.168,78.802 283.52,78.674 284.895,78.603C286.266,78.529 287.668,78.513 288.832,78.564C289.977,78.615 290.914,78.771 291.207,78.888C292.426,79.568 293.422,80.74 294.535,82.197L294.563,82.236L294.594,82.267C295.523,83.224 295.863,83.631 295.988,84.154C296.113,84.677 296.027,85.564 295.785,87.349C295.543,89.142 294.406,92.205 293.879,93.791C292.672,97.408 291.648,102.064 292.523,105.232C293.344,108.209 296.453,115.744 297.945,119.119L298.133,119.545L298.602,119.564C299.895,119.615 301.352,119.724 302.574,119.888C303.621,120.033 304.313,120.256 304.664,120.396C304.395,129.634 303.656,139.892 302.266,149.017L303.637,149.537C306.914,144.424 308.758,137.275 310.887,131.06C311.34,130.974 314.262,130.404 316.559,130.146L317.227,130.072L317.227,121.931C318.766,121.908 319.953,122.092 321.047,122.541C322.23,123.033 323.484,123.869 325.086,124.9C325.094,125.002 325.102,125.064 325.105,125.271C325.117,125.931 325.086,127.197 324.918,129.494C323.027,150.314 314.25,173.201 295.52,186.349C295.043,186.56 294.707,186.892 294.465,187.17C294.199,187.478 294.031,187.756 294.031,187.756L293.91,187.963L294.227,192.306L294.785,192.42C298.086,193.076 300.719,193.791 303.82,194.927C303.805,195.318 303.75,196.584 303.75,199.064C303.75,202.47 304.383,204.392 304.453,204.588C305.383,208.267 304.398,212.017 302.055,215.572C296.426,221.045 289.805,223.224 280.629,220.869C276.758,219.791 273.285,215.963 271.59,211.97C269.301,204.369 272.238,198.666 274.75,196.299L275.121,195.951L274.934,195.478C274.934,195.478 274.121,193.357 273.43,192.185C272.738,191.013 271.172,189.107 271.172,189.107L270.758,188.595L270.195,188.939C267.863,190.384 264.984,193.006 263.016,196.342C259.727,201.92 257.824,209.131 256.184,214.478L256.156,214.576L256.152,214.681C256.098,217.154 255.895,219.549 255.301,221.427C254.707,223.302 253.781,224.611 252.23,225.213L252.074,225.275L251.965,225.392C251.965,225.392 249.961,227.459 249.461,230.724C248.488,237.072 247.133,244.22 243.543,270.006C241.734,282.111 239.539,294.361 236.004,310.049L236.004,310.06L236,310.072C234.176,319.705 233.113,324.955 232.352,328.002C231.586,331.049 231.172,331.795 230.523,332.709C230.211,333.146 229.086,333.978 228.086,334.576C227.09,335.17 226.223,335.595 226.207,335.599L205.035,343.685L205.035,350.767L205.793,350.759C213.895,350.689 220.785,354.541 221.566,354.986C218.777,361.244 219.992,366.955 221.285,372.252C222.629,377.759 223.93,382.818 221.059,388.228L221.055,388.236L221.051,388.24C217.043,396.193 209.402,399.072 201.207,399.467C200.824,399.474 200.441,399.474 200.059,399.47Z" style="fill:rgb(241,135,62);fill-rule:nonzero;"/>
        </g>
    </g>
</svg>
