<?xml version="1.0" encoding="UTF-8" standalone="no"?>
<svg
   width="100%"
   height="100%"
   viewBox="0 0 465 288"
   version="1.1"
   xml:space="preserve"
   style="fill-rule:evenodd;clip-rule:evenodd;stroke-linejoin:round;stroke-miterlimit:2;"
   id="svg57"
   sodipodi:docname="list_p_bike_orange.svg"
   inkscape:version="1.1 (c4e8f9e, 2021-05-24)"
   xmlns:inkscape="http://www.inkscape.org/namespaces/inkscape"
   xmlns:sodipodi="http://sodipodi.sourceforge.net/DTD/sodipodi-0.dtd"
   xmlns="http://www.w3.org/2000/svg"
   xmlns:svg="http://www.w3.org/2000/svg"><defs
   id="defs61" /><sodipodi:namedview
   id="namedview59"
   pagecolor="#ffffff"
   bordercolor="#666666"
   borderopacity="1.0"
   inkscape:pageshadow="2"
   inkscape:pageopacity="0.0"
   inkscape:pagecheckerboard="0"
   showgrid="false"
   inkscape:zoom="1.8958333"
   inkscape:cx="232.35165"
   inkscape:cy="134.50549"
   inkscape:window-width="1280"
   inkscape:window-height="772"
   inkscape:window-x="0"
   inkscape:window-y="0"
   inkscape:window-maximized="0"
   inkscape:current-layer="svg57" />
    <g
   transform="matrix(1,0,0,1,-59,-155)"
   id="g55">
        <g
   id="path5658"
   transform="matrix(1.37172,-1.09383e-18,1.09383e-18,-1.38065,-18.0964,610.636)">
            <path
   d="M342.988,136.233C315.125,129.045 286.703,145.803 279.512,173.666L333.215,173.666C334.137,173.666 335.031,173.862 335.863,174.225C339.152,175.69 340.633,179.537 339.152,182.827L315.125,236.619C315.727,236.811 316.328,236.971 316.934,237.131C344.785,244.323 373.207,227.573 380.41,199.709C387.598,171.846 370.84,143.424 342.988,136.237L342.988,136.233ZM303.188,231.385L323.168,186.682L277.852,186.682C277.852,204.998 287.488,221.975 303.188,231.385ZM264.836,186.682L251.809,186.682L284.371,273.514L297.863,243.342C277.453,231.784 264.836,210.143 264.836,186.682ZM238.156,187.377L156.602,277.85L272.082,277.85L238.156,187.377ZM169.016,165.178C157.137,138.963 126.27,127.358 100.055,139.225C73.852,151.104 62.234,181.983 74.113,208.186C83.934,229.858 107.199,242.123 130.625,237.983L115.348,188.616C114.273,185.166 116.199,181.526 119.637,180.459C123.07,179.401 126.723,181.323 127.781,184.748L143.074,234.127C169.273,222.26 180.891,191.381 169.016,165.178ZM391.875,206.866C380.727,241.065 343.965,259.748 309.777,248.596L290.879,290.877L295.77,303.905L310.426,303.905L310.426,316.92L255.074,316.92C253.563,316.92 252.25,315.897 251.898,314.428C251.477,312.674 252.563,310.924 254.313,310.502L281.855,303.901L276.977,290.877L160.641,290.877L165.863,307.748C167.559,313.209 172.598,316.92 178.309,316.92L199.711,316.92L199.711,329.948L178.309,329.948C166.887,329.948 156.797,322.518 153.426,311.604L134.508,250.498C104.152,256.662 73.66,240.588 61.59,212.065C47.57,178.944 63.07,140.725 96.188,126.709C129.309,112.694 167.523,128.178 181.543,161.295C195.559,194.416 180.074,232.635 146.941,246.651L152.121,263.377L229.109,177.955C231.582,175.213 235.094,173.666 238.781,173.666L266.156,173.666C266.645,171.229 267.281,168.842 268.047,166.498C279.195,132.295 315.957,113.612 350.145,124.764C384.348,135.901 403.016,172.662 391.879,206.866"
   style="fill:rgb(241,135,62);fill-rule:nonzero;"
   id="path52" />
        </g>
    </g>
<text
   xml:space="preserve"
   style="font-style:normal;font-weight:normal;font-size:145.035px;line-height:1.25;font-family:sans-serif;fill:#f1873e;fill-opacity:1;stroke:none;stroke-width:1.51079"
   x="2.5291317"
   y="112.0212"
   id="text431"
   transform="scale(1.0672036,0.93702831)"><tspan
     sodipodi:role="line"
     id="tspan429"
     x="2.5291317"
     y="112.0212"
     style="font-size:145.035px;stroke-width:1.51079;fill:#f1873e;fill-opacity:1">P</tspan></text></svg>
