<?xml version="1.0" encoding="UTF-8" standalone="no"?>
<svg
   width="100%"
   height="100%"
   viewBox="0 0 465 288"
   version="1.1"
   xml:space="preserve"
   style="fill-rule:evenodd;clip-rule:evenodd;stroke-linejoin:round;stroke-miterlimit:2;"
   id="svg57"
   sodipodi:docname="list_p_bike_green.svg"
   inkscape:version="1.1 (c4e8f9e, 2021-05-24)"
   xmlns:inkscape="http://www.inkscape.org/namespaces/inkscape"
   xmlns:sodipodi="http://sodipodi.sourceforge.net/DTD/sodipodi-0.dtd"
   xmlns="http://www.w3.org/2000/svg"
   xmlns:svg="http://www.w3.org/2000/svg"><defs
   id="defs61">
            
        </defs><sodipodi:namedview
   id="namedview59"
   pagecolor="#ffffff"
   bordercolor="#666666"
   borderopacity="1.0"
   inkscape:pageshadow="2"
   inkscape:pageopacity="0.0"
   inkscape:pagecheckerboard="0"
   showgrid="false"
   inkscape:zoom="1.8958333"
   inkscape:cx="243.95605"
   inkscape:cy="151.38462"
   inkscape:window-width="1280"
   inkscape:window-height="772"
   inkscape:window-x="0"
   inkscape:window-y="0"
   inkscape:window-maximized="0"
   inkscape:current-layer="g55" />
    <g
   transform="matrix(1,0,0,1,-59,-155)"
   id="g55">
        <path
   d="m 452.3871,422.54591 c -38.22024,9.92411 -77.20726,-13.21282 -87.0713,-51.68187 h 73.66548 c 1.26473,0 2.49104,-0.27061 3.63231,-0.77179 4.51159,-2.02265 6.54311,-7.33401 4.51159,-11.87635 l -32.95831,-74.26792 c 0.82577,-0.26509 1.65017,-0.48599 2.48144,-0.7069 38.20377,-9.92963 77.1908,13.19626 87.0713,51.66669 9.85992,38.46905 -13.12737,77.70988 -51.33251,87.63262 z m -54.59446,-131.37161 27.40697,61.7192 h -62.16086 c 0,-25.28799 13.21789,-48.72728 34.75389,-61.7192 z m -52.6082,61.7192 h -17.8694 l 44.66595,-119.8846 18.50724,41.65697 c -27.9968,15.95755 -45.30379,45.8362 -45.30379,78.22763 z M 308.58695,351.93394 196.7177,227.0224 h 158.40622 z m -94.84072,30.64905 C 197.45157,418.77673 155.11068,434.79918 119.15104,418.415 83.207865,402.01426 67.271222,359.38117 83.565884,323.204 97.037546,293.28255 128.95061,276.34888 161.08453,282.06477 l -20.95577,68.15855 c -1.4746,4.76324 1.16733,9.78881 5.88331,11.26196 4.70911,1.46073 9.72,-1.19288 11.17128,-5.92161 l 20.97772,-68.17511 c 35.93769,16.38417 51.87433,59.01726 35.58516,95.19443 z m 305.70014,-57.55653 c -15.29193,-47.21685 -65.7191,-73.01154 -112.61546,-57.61453 l -25.92277,-58.37526 6.70908,-17.98711 h 20.10393 V 173.0804 h -75.92744 c -2.07267,0 -3.87374,1.41241 -4.35659,3.44058 -0.57749,2.42166 0.9122,4.8378 3.31271,5.42043 l 37.77991,9.11367 -6.69125,17.98159 H 202.25807 l 7.16312,-23.29295 c 2.32644,-7.53973 9.23854,-12.66332 17.07243,-12.66332 h 29.35755 v -17.98711 h -29.35755 c -15.66778,0 -29.50844,10.25823 -34.13251,25.32665 l -25.9502,84.366 c -41.63993,-8.51033 -83.466415,13.68224 -100.023075,53.06252 -19.231515,45.72851 2.030145,98.49557 47.458765,117.84676 45.43274,19.34981 97.85165,-2.02818 117.08316,-47.75116 19.22603,-45.72851 -2.01505,-98.49557 -47.46425,-117.84676 l 7.10551,-23.09276 105.60598,117.93789 c 3.39226,3.78574 8.20974,5.92161 13.26727,5.92161 h 37.55084 c 0.67077,3.36464 1.54318,6.66025 2.59392,9.8965 15.29194,47.22237 65.71911,73.01705 112.61547,57.62004 46.91694,-15.3763 72.52421,-66.13037 57.24736,-113.35412"
   style="fill:#49bcc4;fill-rule:nonzero;stroke-width:1.37618;fill-opacity:1"
   id="path52" />
    </g>
<text
   xml:space="preserve"
   style="font-style:normal;font-weight:normal;font-size:145.035px;line-height:1.25;font-family:sans-serif;fill:#49bcc4;fill-opacity:1;stroke:none;stroke-width:1.51079"
   x="2.5291317"
   y="112.0212"
   id="text431"
   transform="scale(1.0672036,0.93702831)"><tspan
     sodipodi:role="line"
     id="tspan429"
     x="2.5291317"
     y="112.0212"
     style="font-size:145.035px;stroke-width:1.51079;fill:#49bcc4;fill-opacity:1">P</tspan></text></svg>
