<?xml version="1.0" encoding="UTF-8" standalone="no"?>
<svg
   xmlns:dc="http://purl.org/dc/elements/1.1/"
   xmlns:cc="http://creativecommons.org/ns#"
   xmlns:rdf="http://www.w3.org/1999/02/22-rdf-syntax-ns#"
   xmlns:svg="http://www.w3.org/2000/svg"
   xmlns="http://www.w3.org/2000/svg"
   xmlns:sodipodi="http://sodipodi.sourceforge.net/DTD/sodipodi-0.dtd"
   xmlns:inkscape="http://www.inkscape.org/namespaces/inkscape"
   width="248.9716"
   height="287.27493"
   viewBox="0 0 248.9716 287.27493"
   version="1.1"
   xml:space="preserve"
   style="clip-rule:evenodd;fill-rule:evenodd;stroke-linejoin:round;stroke-miterlimit:2"
   id="svg7"
   sodipodi:docname="list_bus_orange.svg"
   inkscape:version="0.92.3 (2405546, 2018-03-11)"><metadata
   id="metadata13"><rdf:RDF><cc:Work
       rdf:about=""><dc:format>image/svg+xml</dc:format><dc:type
         rdf:resource="http://purl.org/dc/dcmitype/StillImage" /><dc:title></dc:title></cc:Work></rdf:RDF></metadata><defs
   id="defs11">
        
    </defs><sodipodi:namedview
   pagecolor="#ffffff"
   bordercolor="#666666"
   borderopacity="1"
   objecttolerance="10"
   gridtolerance="10"
   guidetolerance="10"
   inkscape:pageopacity="0"
   inkscape:pageshadow="2"
   inkscape:window-width="1920"
   inkscape:window-height="1017"
   id="namedview9"
   showgrid="false"
   fit-margin-top="0"
   fit-margin-left="0"
   fit-margin-right="0"
   fit-margin-bottom="0"
   inkscape:zoom="0.68172043"
   inkscape:cx="145.11997"
   inkscape:cy="144.16552"
   inkscape:window-x="-8"
   inkscape:window-y="-8"
   inkscape:window-maximized="1"
   inkscape:current-layer="svg7" />
    
<path
   inkscape:connector-curvature="0"
   id="path8043"
   d="M 57.45499,0 C 31.33978,0 0,14.235428 0,52.592377 V 157.0283 229.81994 c 0,0 0,19.15166 19.15166,19.15166 v 19.15166 c 0,0 0,19.15166 19.15167,19.15166 19.15166,0 19.15166,-19.15166 19.15166,-19.15166 V 248.9716 h 134.06163 v 19.15166 c 0,0 0,19.15166 19.15166,19.15166 19.15166,0 19.15166,-19.15166 19.15166,-19.15166 V 248.9716 c 0,0 19.15167,0 19.15167,-19.15166 V 52.592377 C 248.97161,13.417656 225.30015,0 199.18495,0 Z m 4.78792,28.727491 h 124.4858 c 2.65251,0 4.78791,2.135411 4.78791,4.787916 0,2.652505 -2.1354,4.787915 -4.78791,4.787915 H 62.24291 c -2.65251,0 -4.78792,-2.13541 -4.78792,-4.787915 0,-2.652505 2.13541,-4.787916 4.78792,-4.787916 z M 38.30333,57.454983 h 172.36495 c 19.15166,0 19.15166,18.515827 19.15166,18.515827 v 58.09082 c 0,0 0,19.15166 -19.15166,19.15166 H 38.30333 c -19.15167,0 -19.15167,-19.15166 -19.15167,-19.15166 V 76.606645 c 0,0 0,-19.151662 19.15167,-19.151662 z m 0,134.061637 c 10.57746,0 19.15166,8.57419 19.15166,19.15166 0,10.57746 -8.5742,19.15166 -19.15166,19.15166 -10.57746,0 -19.15167,-8.5742 -19.15167,-19.15166 0,-10.57747 8.57421,-19.15166 19.15167,-19.15166 z m 172.36495,0 c 10.57747,0 19.15166,8.57419 19.15166,19.15166 0,10.57746 -8.57419,19.15166 -19.15166,19.15166 -10.57746,0 -19.15166,-8.5742 -19.15166,-19.15166 0,-10.57747 8.5742,-19.15166 19.15166,-19.15166 z"
   style="opacity:1;vector-effect:none;fill:#f1873e;fill-opacity:1;stroke-width:1.37617779;stroke-linecap:butt;stroke-linejoin:miter;stroke-miterlimit:2;stroke-dasharray:none;stroke-dashoffset:0;stroke-opacity:1" /></svg>