<?xml version="1.0" encoding="UTF-8" standalone="no"?>
<svg
   xmlns:dc="http://purl.org/dc/elements/1.1/"
   xmlns:cc="http://creativecommons.org/ns#"
   xmlns:rdf="http://www.w3.org/1999/02/22-rdf-syntax-ns#"
   xmlns:svg="http://www.w3.org/2000/svg"
   xmlns="http://www.w3.org/2000/svg"
   xmlns:sodipodi="http://sodipodi.sourceforge.net/DTD/sodipodi-0.dtd"
   xmlns:inkscape="http://www.inkscape.org/namespaces/inkscape"
   width="100%"
   height="100%"
   viewBox="0 0 584 908"
   version="1.1"
   xml:space="preserve"
   style="fill-rule:evenodd;clip-rule:evenodd;stroke-linejoin:round;stroke-miterlimit:2;"
   id="svg4"
   sodipodi:docname="marker_walker_orange.svg"
   inkscape:version="1.0.2-2 (e86c870879, 2021-01-15)"><metadata
   id="metadata10"><rdf:RDF><cc:Work
       rdf:about=""><dc:format>image/svg+xml</dc:format><dc:type
         rdf:resource="http://purl.org/dc/dcmitype/StillImage" /></cc:Work></rdf:RDF></metadata><defs
   id="defs8" /><sodipodi:namedview
   pagecolor="#ffffff"
   bordercolor="#666666"
   borderopacity="1"
   objecttolerance="10"
   gridtolerance="10"
   guidetolerance="10"
   inkscape:pageopacity="0"
   inkscape:pageshadow="2"
   inkscape:window-width="1920"
   inkscape:window-height="1017"
   id="namedview6"
   showgrid="false"
   inkscape:zoom="0.80947137"
   inkscape:cx="292"
   inkscape:cy="454"
   inkscape:window-x="-8"
   inkscape:window-y="-8"
   inkscape:window-maximized="1"
   inkscape:current-layer="svg4"
   inkscape:document-rotation="0" />
    <path
   style="fill:rgb(241,135,62);"
   d="M 291.583,907.671 C 291.388,907.382 0,476.351 0,291.583 0,130.654 130.654,0 291.583,0 c 160.934,0 291.588,130.654 291.588,291.583 0,184.768 -291.393,615.799 -291.588,616.088 z"
   id="path2" />
<path
   style="fill:#ffffff;fill-opacity:1"
   d="m 332.65,558.576 c 0,-10e-4 0,-10e-4 -10e-4,0 z"
   id="path839" /><path
   style="fill:#ffffff;fill-opacity:1;stroke-width:0.999999"
   d="m 328.58501,502.80484 c 0,0.0189 -0.216,0.5544 -0.3303,1.20421 -0.117,0.68039 -0.1998,1.521 -0.2565,2.3283 -0.0765,1.1538 -0.0729,1.67309 -0.0819,2.205 l 17.4987,1.6272 c 0,0 0.2268,0.0405 0.8136,-0.1386 0.5886,-0.1755 1.4427,-0.57781 2.4156,-1.5507 1.2474,-1.2672 1.7415,-1.9107 2.6118,-3.4713 0.4626,-7.7922 0.3402,-12.2571 0.0711,-14.9922 -0.2727,-2.7549 -0.6948,-3.8205 -0.8136,-5.2524 -0.6894,-5.2839 -0.5049,-11.9277 -0.5049,-11.9277 l 0.0108,-0.1188 c 1.1025,-7.3539 4.914,-12.8295 9.6669,-18.2412 l 0.315,-0.351 4.5009,0.1602 -0.7578,1.4013 c -2.7243,5.0571 -4.6503,9.6966 -4.6503,15.759 0,3.2751 1.602,7.3854 1.6173,7.416 1.5651,3.0636 3.3624,7.2513 5.2425,9.7695 l -0.0198,-0.0252 c 1.2402,1.5543 1.6371,3.7746 1.5912,6.165 -0.0513,2.3886 -0.5778,4.9689 -1.458,7.2711 -0.2268,0.5922 -0.6651,0.9369 -1.0863,1.1853 -0.4185,0.2466 -0.8604,0.4113 -1.2726,0.5301 -0.4023,0.1188 -0.4734,0.108 -0.7623,0.1593 -0.0513,0.4374 -0.1341,0.9837 -0.1701,1.9989 -0.0261,0.684 -0.0207,1.3797 0.0468,1.8783 0.0315,0.2484 0.0774,0.4482 0.1134,0.5463 0.01,0.0261 0.01,0.0207 0.0153,0.0261 -0.0315,-0.0261 0.2628,0.144 0.7002,0.2673 0.4428,0.1242 1.0458,0.2538 1.7406,0.3618 1.3959,0.2214 3.1788,0.3897 4.9914,0.4833 1.8072,0.0981 3.6558,0.1188 5.1903,0.0513 1.5093,-0.0666 2.745,-0.2727 3.1311,-0.4266 1.6074,-0.8964 2.9205,-2.4417 4.3875,-4.3632 l 0.0369,-0.0513 0.0414,-0.0405 c 1.2249,-1.2618 1.6731,-1.7982 1.8378,-2.4876 0.1647,-0.6894 0.0513,-1.8594 -0.2673,-4.2129 -0.3195,-2.3634 -1.818,-6.4017 -2.5137,-8.4933 -1.5912,-4.7682 -2.9412,-10.9071 -1.7874,-15.084 1.0827,-3.9249 5.1813,-13.8591 7.1487,-18.3087 l 0.2475,-0.5616 0.6183,-0.0252 c 1.7046,-0.0666 3.6261,-0.2106 5.2371,-0.4266 1.3806,-0.1917 2.2923,-0.4851 2.7558,-0.6696 -0.3555,-12.1797 -1.3293,-25.704 -3.1617,-37.7343 l 1.8072,-0.6858 c 4.3209,6.741 6.7518,16.1658 9.5589,24.3603 0.5967,0.1134 4.4496,0.8649 7.4781,1.2051 l 0.8802,0.0972 v 10.7334 c 2.0295,0.0306 3.5937,-0.2124 5.0364,-0.8046 1.5597,-0.648 3.213,-1.7505 5.3253,-3.1095 0.0108,-0.135 0.0207,-0.2169 0.0252,-0.4896 0.0153,-0.8703 -0.0252,-2.5389 -0.2466,-5.5674 -2.493,-27.4491 -14.0652,-57.6243 -38.7594,-74.9583 -0.6282,-0.2781 -1.0719,-0.7164 -1.3905,-1.0827 -0.351,-0.4059 -0.5724,-0.7722 -0.5724,-0.7722 l -0.1593,-0.2736 0.4176,-5.7258 0.7362,-0.1503 c 4.3515,-0.8649 7.8228,-1.8072 11.9115,-3.3048 -0.0198,-0.5157 -0.0918,-2.1852 -0.0918,-5.4549 0,-4.4901 0.8343,-7.0245 0.9261,-7.2828 1.2267,-4.8501 -0.072,-9.7947 -3.1608,-14.481 -7.4214,-7.2162 -16.1514,-10.089 -28.2483,-6.984 -5.1039,1.4211 -9.6831,6.4683 -11.9178,11.7324 -3.0177,10.0215 0.8541,17.5401 4.1661,20.6613 l 0.4896,0.459 -0.2466,0.6237 c 0,0 -1.0719,2.7963 -1.9827,4.3407 -0.9126,1.5453 -2.9772,4.0581 -2.9772,4.0581 l -0.5463,0.6759 -0.7416,-0.4536 c -3.0744,-1.9053 -6.8706,-5.3622 -9.4653,-9.7605 -4.3362,-7.3539 -6.8454,-16.8615 -9.0072,-23.9112 l -0.0369,-0.1287 -0.005,-0.1386 c -0.0711,-3.2607 -0.3384,-6.4179 -1.1223,-8.8938 -0.783,-2.4723 -2.0034,-4.1985 -4.0482,-4.9914 l -0.2061,-0.0819 -0.144,-0.1548 c 0,0 -2.6415,-2.7252 -3.3012,-7.029 -1.2825,-8.37 -3.069,-17.7939 -7.8021,-51.7905 -2.385,-15.9597 -5.2785,-32.1102 -9.9396,-52.7931 v -0.0144 l -0.005,-0.0162 c -2.4048,-12.6999 -3.8061,-19.6218 -4.8096,-23.6394 -1.0098,-4.0167 -1.5552,-5.0004 -2.4111,-6.2055 -0.4113,-0.576 -1.8945,-1.6731 -3.213,-2.4615 -1.3131,-0.783 -2.4561,-1.3437 -2.4777,-1.3482 l -27.9135,-10.6614 v -9.3366 l 0.9999,0.0108 c 10.6821,0.0918 19.7658,-4.9869 20.7954,-5.5737 -3.6774,-8.2503 -2.0754,-15.7797 -0.3708,-22.7637 1.7721,-7.2603 3.4875,-13.9302 -0.2979,-21.0627 l -0.005,-0.0108 -0.005,-0.004 c -5.2839,-10.485902 -15.3576,-14.281202 -26.1621,-14.802302 -0.5049,-0.009 -1.0098,-0.009 -1.5138,-0.004 -7.5753,0.1278 -15.0021,2.286 -20.4354,6.4728 -5.7996,4.4748 -9.3987,11.190602 -8.7039,20.590202 v 0.01 l 0.005,0.0108 c 0.1026,1.9728 0.2835,4.6341 0.216,7.2144 -0.0729,2.5857 -0.3348,5.0895 -1.3644,6.9219 l -0.036,0.0675 -0.0522,0.0612 c -2.4003,3.0483 -4.4235,5.3145 -4.9698,5.9337 3.924,4.1445 9.8937,8.4861 15.2595,11.6487 l 0.5157,0.3033 -0.4077,9.0963 -33.3711,14.0742 c 0,0 -0.005,0 -0.005,0.005 -2.5128,1.1592 -4.0743,2.4723 -5.3982,6.273 l -0.005,0.0108 -39.1824,124.50329 c 0.6642,0.44731 2.1942,1.43191 4.419,2.28601 l 0.7416,0.2835 -0.1179,0.7875 c -0.1854,1.2312 -0.855,2.7711 -1.4742,4.1301 -0.5967,1.3185 -1.1268,2.3337 -1.1628,2.4012 v 0.005 c -2.133,5.13899 -1.2096,13.1625 -0.4689,19.1421 1.1322,2.7342 2.3283,4.0734 4.2543,5.7006 4.4127,0.6534 8.5131,-0.5868 11.6856,-2.3175 l 0.6237,-12.1338 c -0.3159,-0.2466 -0.6705,-0.4626 -1.1286,-0.7056 -0.2889,-0.1485 -0.603,-0.3078 -0.9009,-0.6696 -0.2988,-0.36 -0.4374,-1.0242 -0.2781,-1.5183 -0.0108,0.0297 0.0765,-0.3762 0.1332,-0.8136 0.0567,-0.4383 0.1188,-0.9783 0.1755,-1.4994 0.108,-1.035 0.1908,-1.9989 0.1908,-1.9989 l 0.0657,-0.7812 4.8006,-0.6858 c 7.2621,-21.0789 14.3739,-40.9275 24.4629,-69.5925 1.7514,-6.633 2.8017,-9.6102 2.8017,-9.6102 l 1.9215,0.3456 -0.3618,25.0605 v 0.0144 c 0,3.5793 -0.2781,7.5456 -0.7722,9.3375 -2.4669,11.6703 -5.1606,21.7485 -8.1423,34.5159 -0.5607,2.8368 -1.6434,10.6092 -2.0331,22.4694 v 0.005 c -0.4077,12.1896 -1.2636,31.8015 -1.2879,44.8776 l 5.9535,1.3698 -0.3258,9.7695 v 0.0108 c 0.027,10.3356 0.2835,21.2805 1.3752,33.7734 0.9324,10.4184 1.6695,22.1193 2.7873,34.9074 l 0.005,0.0144 c 1.5858,15.7698 2.3733,28.9188 3.2076,45.9198 l 0.0513,1.044 -14.301,-0.1224 c -0.099,0.2358 -0.2016,0.5814 -0.2934,0.9729 -0.1917,0.7884 -0.3195,1.7613 -0.3195,2.394 0,0.999 0.1188,1.6389 0.4941,2.3796 0.3708,0.7425 1.0512,1.6128 2.205,2.8332 0.792,0.8442 1.5966,1.611 2.2239,2.1519 0.3195,0.2673 0.5976,0.4851 0.783,0.6075 0.0675,0.0468 0.0981,0.0621 0.1332,0.0837 h 0.1647 l 0.2691,0.1998 c 2.43,1.85939 4.3416,4.06889 6.5817,6.1083 h 0.1332 l 0.2889,0.4221 c 0.8127,1.1997 1.1889,1.6371 1.6884,1.8585 0.5049,0.2223 1.4373,0.2997 3.3381,0.3051 2.2761,0 4.4964,-0.2628 6.2874,-0.6948 1.7937,-0.4338 3.1635,-1.0971 3.6522,-1.5876 0.0198,-0.0252 0.3708,-0.7299 0.5355,-2.3679 0.1647,-1.6389 0.2466,-4.1571 0.2673,-7.8534 0.0522,-7.9479 1.035,-17.6247 1.962,-26.2917 1.7316,-18.0207 4.2138,-34.8354 5.6196,-52.659 v -0.0216 c 1.683,-17.1036 2.0394,-30.7917 1.0665,-39.4902 -0.2637,-2.3337 -0.5517,-4.4901 -0.7587,-6.0867 -0.1026,-0.7992 -0.1845,-1.4589 -0.2358,-1.9368 -0.0261,-0.243 -0.0459,-0.4383 -0.0513,-0.603 -0.005,-0.0828 -0.0108,-0.1539 -0.005,-0.252 0.005,-0.0468 0.005,-0.1035 0.0252,-0.1962 0.0162,-0.0918 -0.005,-0.2376 0.2781,-0.5193 l 0.2997,-0.3051 14.7753,0.4896 -0.0783,1.035 c 0,0 -1.008,12.978 -1.5858,20.2194 v 0.01 c -2.2095,22.7484 -0.2007,49.7457 0.4734,73.5849 v 0.009 c 0.1449,6.8346 0.099,10.647 -0.0603,13.0518 -0.1602,2.4093 -0.4536,3.4659 -0.7317,4.5261 -0.5616,2.1528 -1.2672,4.167 -2.2302,6.2577 -0.7362,2.6937 -1.1799,4.6755 -0.9117,5.8095 0.1395,0.576 0.3861,0.9675 0.9531,1.3806 0.5706,0.4059 1.503,0.792 2.8881,1.0917 h 0.005 c 4.1985,0.8856 8.8479,2.7441 12.7629,6.3702 l 0.005,0.005 0.005,0.0108 c 2.7135,2.5848 4.8969,3.0636 8.244,1.8585 3.3282,-1.1961 6.2892,-2.5389 9.018,-3.7143 l -0.0252,-2.2392 c -0.0459,-1.6164 -0.2727,-2.7405 -0.6021,-3.4767 -0.3294,-0.7362 -0.7209,-1.10611 -1.3185,-1.3896 -1.1943,-0.5778 -3.4308,-0.567 -6.5304,-0.5778 l -0.3393,-0.005 -0.2682,-0.2106 c 0,0 -4.3164,-3.2607 -5.8302,-7.24141 l -0.0882,-0.2367 0.0315,-0.2466 c 4.0482,-31.0662 7.6221,-54.7713 11.5155,-84.8214 0.6696,-13.2876 -0.1386,-23.8095 -0.6489,-31.4883 l -0.0567,-0.8505 0.8343,-0.1791 c 6.4575,-1.4013 12.8709,-2.4417 18.9576,-5.4486 -0.1026,-0.5616 -0.2016,-1.1178 -0.3969,-2.394 -0.2619,-1.7154 -0.6075,-4.023 -1.0152,-6.7833 -0.8136,-5.5206 -1.8675,-12.8286 -2.9862,-20.6622 -2.2401,-15.6672 -4.7331,-33.4341 -6.0561,-43.2297 -2.3697,-17.577 -3.7962,-23.1237 -3.3372,-59.859 l 1.9314,-0.2835 c 6.066,19.2303 14.7546,56.9439 21.7278,83.4003 2.2554,0.5463 5.1498,1.395 5.1498,1.395 l 0.7011,0.216 v 0.7371 c -0.0216,3.7602 0.6948,7.6734 0.7155,7.776 0.2367,0.81 1.3131,2.1528 2.7135,3.3228 1.4067,1.1745 3.1059,2.2239 4.3677,2.7909 l 0.5517,0.2475 0.4212,7.5708 c 2.4417,17.8497 7.2216,33.0786 22.4397,46.9575 l 0.5139,0.468 -0.2673,0.6399 c -6.9732,16.6752 -12.2463,32.4036 -16.2846,53.082 5.2533,2.0484 12.4479,5.6691 12.4479,5.6691 l 1.035,0.5265 -0.684,0.9369 c -3.6927,5.0526 -7.5861,9.954 -7.5663,16.47 0.0972,6.4062 2.3175,9.2691 4.4865,15.2235 l 0.0351,0.1134 c 1.1079,4.779 1.3914,13.2354 0.0981,17.685 l -0.1701,0.576 -0.5868,0.1188 c 0,0 -1.0611,0.2115 -2.2203,0.5616 -0.576,0.1809 -1.1736,0.3915 -1.6479,0.6084 -0.468,0.2214 -0.7974,0.4887 -0.8244,0.5247 z"
   id="path837" /></svg>
