<?xml version="1.0" encoding="UTF-8" standalone="no"?>
<!DOCTYPE svg PUBLIC "-//W3C//DTD SVG 1.1//EN" "http://www.w3.org/Graphics/SVG/1.1/DTD/svg11.dtd">
<svg width="100%" height="100%" viewBox="0 0 267 415" version="1.1" xmlns="http://www.w3.org/2000/svg" xmlns:xlink="http://www.w3.org/1999/xlink" xml:space="preserve" xmlns:serif="http://www.serif.com/" style="fill-rule:evenodd;clip-rule:evenodd;stroke-linejoin:round;stroke-miterlimit:2;">
    <g id="Ebene-1" serif:id="Ebene 1">
        <path id="path816" d="M133.177,414.567C133.088,414.434 -0,217.567 -0,133.177C-0,59.674 59.674,-0 133.177,-0C206.681,-0 266.356,59.674 266.356,133.177C266.356,217.567 133.266,414.435 133.177,414.567ZM219.123,193.513C214.191,178.284 197.926,169.964 182.8,174.93L174.439,156.102L176.603,150.3L183.087,150.3L183.087,144.504L158.597,144.504C157.929,144.504 157.348,144.96 157.192,145.614C157.006,146.395 157.486,147.175 158.261,147.362L170.446,150.302L168.288,156.102L116.817,156.102L119.127,148.589C119.877,146.157 122.107,144.504 124.634,144.504L134.103,144.504L134.103,138.703L124.634,138.703C119.58,138.703 115.116,142.011 113.625,146.872L105.255,174.083C91.824,171.338 78.333,178.496 72.993,191.198C66.79,205.947 73.648,222.967 88.3,229.208C102.954,235.45 119.862,228.554 126.064,213.807C132.266,199.057 125.415,182.038 110.755,175.796L113.047,168.348L147.11,206.388C148.204,207.609 149.757,208.298 151.389,208.298L163.5,208.298C163.716,209.383 163.998,210.446 164.337,211.49C169.269,226.721 185.534,235.041 200.66,230.075C215.793,225.115 224.052,208.745 219.125,193.513L219.123,193.513ZM197.494,224.967C185.166,228.168 172.591,220.706 169.409,208.298L193.17,208.298C193.578,208.298 193.973,208.21 194.341,208.049C195.797,207.397 196.452,205.683 195.797,204.218L185.166,180.264C185.432,180.179 185.698,180.107 185.966,180.036C198.289,176.833 210.863,184.292 214.051,196.701C217.231,209.109 209.816,221.765 197.494,224.966L197.494,224.967ZM120.522,212.078C115.266,223.752 101.61,228.919 90.011,223.635C78.418,218.345 73.278,204.594 78.534,192.925C82.879,183.274 93.172,177.813 103.537,179.656L96.778,201.64C96.302,203.176 97.154,204.798 98.675,205.273C100.194,205.744 101.81,204.888 102.278,203.363L109.045,181.373C120.636,186.658 125.776,200.409 120.522,212.078ZM179.885,182.594L188.725,202.501L168.675,202.501C168.675,194.345 172.938,186.785 179.885,182.594ZM162.916,202.501L157.153,202.501L171.559,163.834L177.529,177.27C168.499,182.417 162.916,192.054 162.916,202.501ZM151.112,202.192L115.03,161.903L166.122,161.903L151.112,202.192ZM41.286,196.248L41.286,125.529L67.963,125.529C72.658,125.529 76.244,125.754 78.72,126.204C82.194,126.783 85.104,127.884 87.452,129.508C89.799,131.132 91.689,133.408 93.12,136.334C94.551,139.261 95.267,142.477 95.267,145.982C95.267,151.996 93.353,157.085 89.526,161.25C85.699,165.415 78.785,167.497 68.783,167.497L50.645,167.497L50.645,196.248L41.286,196.248ZM50.645,159.152L68.928,159.152C74.974,159.152 79.267,158.026 81.808,155.775C84.348,153.524 85.619,150.356 85.619,146.272C85.619,143.313 84.871,140.78 83.376,138.674C81.88,136.568 79.91,135.177 77.466,134.501C75.89,134.083 72.98,133.874 68.735,133.874L50.645,133.874L50.645,159.152ZM129.783,84.116L37.243,115.337C32.055,117.088 26.421,114.296 24.671,109.108C22.92,103.92 25.712,98.286 30.9,96.536L129.931,63.125L227.507,97.592C232.67,99.415 235.381,105.088 233.557,110.251C231.733,115.414 226.061,118.125 220.898,116.301L129.783,84.116Z" style="fill:rgb(241,135,62);"/>
    </g>
</svg>
