<?xml version="1.0" encoding="UTF-8" standalone="no"?><!DOCTYPE svg PUBLIC "-//W3C//DTD SVG 1.1//EN" "http://www.w3.org/Graphics/SVG/1.1/DTD/svg11.dtd"><svg width="100%" height="100%" viewBox="0 0 2434 3788" version="1.1" xmlns="http://www.w3.org/2000/svg" xmlns:xlink="http://www.w3.org/1999/xlink" xml:space="preserve" xmlns:serif="http://www.serif.com/" style="fill-rule:evenodd;clip-rule:evenodd;stroke-linejoin:round;stroke-miterlimit:2;"><path d="M1214.93,3781.96c-0.812,-1.205 -1214.93,-1797.17 -1214.93,-2567.03c0,-670.537 544.392,-1214.93 1214.93,-1214.93c670.559,0 1214.95,544.392 1214.95,1214.93c0,769.867 -1214.14,2565.83 -1214.95,2567.03Zm-537.846,-2393.08c0,210.805 241.159,381.946 538.196,381.946c297.038,0 538.192,-171.141 538.192,-381.945c-125.579,63.241 -323.504,114.583 -538.192,114.583c-214.691,0 -412.616,-51.342 -538.196,-114.583Zm190.971,-694.442c95.821,0 173.613,77.792 173.613,173.608c0,95.821 -77.792,173.613 -173.613,173.613c-95.816,0 -173.608,-77.792 -173.608,-173.613c0,-95.816 77.792,-173.608 173.608,-173.608Zm694.446,0c95.817,0 173.613,77.792 173.613,173.608c0,95.821 -77.796,173.613 -173.613,173.613c-95.817,0 -173.612,-77.792 -173.612,-173.613c0,-95.816 77.795,-173.608 173.612,-173.608Z" style="fill:#58c0c7;"/></svg>