<?xml version="1.0" encoding="UTF-8" standalone="no"?><!DOCTYPE svg PUBLIC "-//W3C//DTD SVG 1.1//EN" "http://www.w3.org/Graphics/SVG/1.1/DTD/svg11.dtd"><svg width="100%" height="100%" viewBox="0 0 584 909" version="1.1" xmlns="http://www.w3.org/2000/svg" xmlns:xlink="http://www.w3.org/1999/xlink" xml:space="preserve" xmlns:serif="http://www.serif.com/" style="fill-rule:evenodd;clip-rule:evenodd;stroke-linejoin:round;stroke-miterlimit:2;"><path d="M291.583,907.671c-0.195,-0.289 -291.583,-431.32 -291.583,-616.088c0,-160.929 130.654,-291.583 291.583,-291.583c160.934,0 291.588,130.654 291.588,291.583c0,184.768 -291.393,615.799 -291.588,616.088Zm-129.083,-574.338c0,50.593 57.878,91.667 129.167,91.667c71.289,0 129.166,-41.074 129.166,-91.667c-30.139,15.178 -77.641,27.5 -129.166,27.5c-51.526,0 -99.028,-12.322 -129.167,-27.5Zm45.833,-166.666c22.997,0 41.667,18.67 41.667,41.666c0,22.997 -18.67,41.667 -41.667,41.667c-22.996,0 -41.666,-18.67 -41.666,-41.667c0,-22.996 18.67,-41.666 41.666,-41.666Zm166.667,0c22.996,0 41.667,18.67 41.667,41.666c0,22.997 -18.671,41.667 -41.667,41.667c-22.996,0 -41.667,-18.67 -41.667,-41.667c0,-22.996 18.671,-41.666 41.667,-41.666Z" style="fill:#1fbf6e;"/></svg>