<?xml version="1.0" encoding="UTF-8" standalone="no"?>
<svg
   xmlns:dc="http://purl.org/dc/elements/1.1/"
   xmlns:cc="http://creativecommons.org/ns#"
   xmlns:rdf="http://www.w3.org/1999/02/22-rdf-syntax-ns#"
   xmlns:svg="http://www.w3.org/2000/svg"
   xmlns="http://www.w3.org/2000/svg"
   xmlns:sodipodi="http://sodipodi.sourceforge.net/DTD/sodipodi-0.dtd"
   xmlns:inkscape="http://www.inkscape.org/namespaces/inkscape"
   width="100%"
   height="100%"
   viewBox="0 0 584 909"
   version="1.1"
   xml:space="preserve"
   style="fill-rule:evenodd;clip-rule:evenodd;stroke-linejoin:round;stroke-miterlimit:2;"
   id="svg4"
   sodipodi:docname="marker_bus_green.svg"
   inkscape:version="1.0.2-2 (e86c870879, 2021-01-15)"><metadata
     id="metadata10"><rdf:RDF><cc:Work
         rdf:about=""><dc:format>image/svg+xml</dc:format><dc:type
           rdf:resource="http://purl.org/dc/dcmitype/StillImage" /></cc:Work></rdf:RDF></metadata><defs
     id="defs8" /><sodipodi:namedview
     pagecolor="#ffffff"
     bordercolor="#666666"
     borderopacity="1"
     objecttolerance="10"
     gridtolerance="10"
     guidetolerance="10"
     inkscape:pageopacity="0"
     inkscape:pageshadow="2"
     inkscape:window-width="1920"
     inkscape:window-height="1017"
     id="namedview6"
     showgrid="false"
     inkscape:zoom="0.51925192"
     inkscape:cx="769.03332"
     inkscape:cy="640.34011"
     inkscape:window-x="-8"
     inkscape:window-y="-8"
     inkscape:window-maximized="1"
     inkscape:current-layer="svg4"
     inkscape:document-rotation="0" /><path
     d="M291.583,907.671c0,0 291.588,-431.258 291.588,-616.088c0,-160.929 -130.654,-291.583 -291.588,-291.583c-160.929,0 -291.583,130.654 -291.583,291.583c0,184.83 291.583,616.088 291.583,616.088Z"
     style="fill:#00bd00;fill-opacity:1"
     id="path2" /><path
     inkscape:connector-curvature="0"
     id="path8043"
     d="m 200.90887,108.05086 c -35.3277,0 -77.7229,19.25714 -77.7229,71.14493 v 141.27689 98.46971 c 0,0 0,25.90762 25.90759,25.90762 v 25.90763 c 0,0 0,25.90763 25.90761,25.90763 25.9077,0 25.9077,-25.90763 25.9077,-25.90763 v -25.90763 h 181.35337 v 25.90763 c 0,0 0,25.90763 25.9076,25.90763 25.9076,0 25.9076,-25.90763 25.9076,-25.90763 v -25.90763 c 0,0 25.9076,0 25.9076,-25.90762 v -239.7466 c 0,-52.99405 -32.0218,-71.14493 -67.3494,-71.14493 z m 6.4769,38.86144 h 168.39946 c 3.5883,0 6.477,2.8887 6.477,6.47691 0,3.5882 -2.8887,6.4769 -6.477,6.4769 H 207.38577 c -3.5882,0 -6.4769,-2.8887 -6.4769,-6.4769 0,-3.58821 2.8887,-6.47691 6.4769,-6.47691 z m -32.3846,38.86144 h 233.16866 c 25.9076,0 25.9076,25.04749 25.9076,25.04749 v 78.58302 c 0,0 0,25.90763 -25.9076,25.90763 H 175.00117 c -25.90761,0 -25.90761,-25.90763 -25.90761,-25.90763 v -77.72288 c 0,0 0,-25.90763 25.90761,-25.90763 z m 0,181.35339 c 14.30879,0 25.9077,11.59885 25.9077,25.90763 0,14.30878 -11.5989,25.90763 -25.9077,25.90763 -14.3087,0 -25.90761,-11.59885 -25.90761,-25.90763 0,-14.30878 11.59891,-25.90763 25.90761,-25.90763 z m 233.16866,0 c 14.3088,0 25.9076,11.59885 25.9076,25.90763 0,14.30878 -11.5988,25.90763 -25.9076,25.90763 -14.3088,0 -25.9076,-11.59885 -25.9076,-25.90763 0,-14.30878 11.5988,-25.90763 25.9076,-25.90763 z"
     style="fill:#fafafa;fill-opacity:1;stroke-width:1" /></svg>
