<?xml version="1.0" encoding="UTF-8" standalone="no"?>
<svg
   xmlns:dc="http://purl.org/dc/elements/1.1/"
   xmlns:cc="http://creativecommons.org/ns#"
   xmlns:rdf="http://www.w3.org/1999/02/22-rdf-syntax-ns#"
   xmlns:svg="http://www.w3.org/2000/svg"
   xmlns="http://www.w3.org/2000/svg"
   xmlns:sodipodi="http://sodipodi.sourceforge.net/DTD/sodipodi-0.dtd"
   xmlns:inkscape="http://www.inkscape.org/namespaces/inkscape"
   width="100%"
   height="100%"
   viewBox="0 0 584 909"
   version="1.1"
   xml:space="preserve"
   style="fill-rule:evenodd;clip-rule:evenodd;stroke-linejoin:round;stroke-miterlimit:2;"
   id="svg4"
   sodipodi:docname="marker_car_orange.svg"
   inkscape:version="0.92.3 (2405546, 2018-03-11)"><metadata
     id="metadata10"><rdf:RDF><cc:Work
         rdf:about=""><dc:format>image/svg+xml</dc:format><dc:type
           rdf:resource="http://purl.org/dc/dcmitype/StillImage" /><dc:title></dc:title></cc:Work></rdf:RDF></metadata><defs
     id="defs8" /><sodipodi:namedview
     pagecolor="#ffffff"
     bordercolor="#666666"
     borderopacity="1"
     objecttolerance="10"
     gridtolerance="10"
     guidetolerance="10"
     inkscape:pageopacity="0"
     inkscape:pageshadow="2"
     inkscape:window-width="1920"
     inkscape:window-height="1017"
     id="namedview6"
     showgrid="false"
     inkscape:zoom="0.51925192"
     inkscape:cx="456.08311"
     inkscape:cy="640.34011"
     inkscape:window-x="-8"
     inkscape:window-y="-8"
     inkscape:window-maximized="1"
     inkscape:current-layer="svg4" /><path
     d="M291.583,907.671c0,0 291.588,-431.258 291.588,-616.088c0,-160.929 -130.654,-291.583 -291.588,-291.583c-160.929,0 -291.583,130.654 -291.583,291.583c0,184.83 291.583,616.088 291.583,616.088Z"
     style="fill:#f1873e;"
     id="path2" /><path
     style="opacity:1;vector-effect:none;fill:#ffffff;fill-opacity:1;stroke:none;stroke-width:3.77952766;stroke-linecap:butt;stroke-linejoin:miter;stroke-miterlimit:4;stroke-dasharray:none;stroke-dashoffset:0;stroke-opacity:1"
     d="m 217.84199,152.74029 c -21.606,0 -33.06617,11.80389 -38.35689,25.61 l -28.10936,72.49794 c -11.13309,1.41872 -30.85043,14.50771 -30.85043,39.26506 v 92.20943 h 27.3347 v 29.47572 c 0,36.28318 51.35339,35.86157 51.35339,0 v -29.47572 h 92.40113 92.35135 v 29.47572 c 0,35.86157 51.34519,36.28318 51.34519,0 v -29.47572 h 27.33462 v -92.20943 c 0,-24.75735 -19.73424,-37.84698 -30.8671,-39.26506 l -28.10118,-72.49794 c -5.28862,-13.80611 -16.76011,-25.61 -38.36512,-25.61 h -39.69806 z m -0.33357,26.4182 h 148.13692 c 9.25508,0.0806 13.22539,5.86993 15.87921,13.87977 l 21.15283,57.06029 H 291.55588 180.47625 l 21.16123,-57.06029 c 2.64525,-8.00984 6.61462,-13.79352 15.87081,-13.87977 z m -43.15552,98.69944 c 13.10012,0 23.71891,10.94302 23.71891,24.45216 0,13.49946 -10.61879,24.43539 -23.71891,24.43539 -13.099,0 -23.71895,-10.93593 -23.71895,-24.43539 0,-13.50914 10.61995,-24.45216 23.71895,-24.45216 z m 234.44805,0 c 13.09705,0 23.7189,10.94302 23.7189,24.45216 0,13.49946 -10.62186,24.43539 -23.7189,24.43539 -13.09722,0 -23.72731,-10.93593 -23.72731,-24.43539 0,-13.50914 10.6301,-24.45216 23.72731,-24.45216 z"
     id="path2301-8-5"
     inkscape:connector-curvature="0" /></svg>