<?xml version="1.0" encoding="UTF-8" standalone="no"?>
<svg
   xmlns:dc="http://purl.org/dc/elements/1.1/"
   xmlns:cc="http://creativecommons.org/ns#"
   xmlns:rdf="http://www.w3.org/1999/02/22-rdf-syntax-ns#"
   xmlns:svg="http://www.w3.org/2000/svg"
   xmlns="http://www.w3.org/2000/svg"
   xmlns:sodipodi="http://sodipodi.sourceforge.net/DTD/sodipodi-0.dtd"
   xmlns:inkscape="http://www.inkscape.org/namespaces/inkscape"
   width="100%"
   height="100%"
   viewBox="0 0 584 908"
   version="1.1"
   xml:space="preserve"
   style="fill-rule:evenodd;clip-rule:evenodd;stroke-linejoin:round;stroke-miterlimit:2;"
   id="svg4"
   sodipodi:docname="marker_bike_green.svg"
   inkscape:version="1.0.2-2 (e86c870879, 2021-01-15)"><metadata
   id="metadata10"><rdf:RDF><cc:Work
       rdf:about=""><dc:format>image/svg+xml</dc:format><dc:type
         rdf:resource="http://purl.org/dc/dcmitype/StillImage" /></cc:Work></rdf:RDF></metadata><defs
   id="defs8" /><sodipodi:namedview
   pagecolor="#ffffff"
   bordercolor="#666666"
   borderopacity="1"
   objecttolerance="10"
   gridtolerance="10"
   guidetolerance="10"
   inkscape:pageopacity="0"
   inkscape:pageshadow="2"
   inkscape:window-width="1920"
   inkscape:window-height="1017"
   id="namedview6"
   showgrid="false"
   inkscape:zoom="0.80947137"
   inkscape:cx="292"
   inkscape:cy="454"
   inkscape:window-x="-8"
   inkscape:window-y="-8"
   inkscape:window-maximized="1"
   inkscape:current-layer="svg4"
   inkscape:document-rotation="0" />
    <path
   d="M 291.583,907.671 C 291.388,907.382 0,476.351 0,291.583 0,130.654 130.654,0 291.583,0 c 160.934,0 291.588,130.654 291.588,291.583 0,184.768 -291.393,615.799 -291.588,616.088 z"
   style="fill:#00bd00;fill-opacity:1"
   id="path2"
   sodipodi:nodetypes="csssc" />
<g
   style="clip-rule:evenodd;fill-rule:evenodd;stroke-linejoin:round;stroke-miterlimit:2"
   transform="translate(-3.9641348e-4,-27.182125)"
   id="g5"><g
     id="path5658"
     transform="matrix(1.37172,0,0,-1.38065,-18.0964,610.636)"><path
       inkscape:connector-curvature="0"
       d="m 342.988,136.233 c -27.863,-7.188 -56.285,9.57 -63.476,37.433 h 53.703 c 0.922,0 1.816,0.196 2.648,0.559 3.289,1.465 4.77,5.312 3.289,8.602 l -24.027,53.792 c 0.602,0.192 1.203,0.352 1.809,0.512 27.851,7.192 56.273,-9.558 63.476,-37.422 7.188,-27.863 -9.57,-56.285 -37.422,-63.472 z m -39.8,95.152 19.98,-44.703 h -45.316 c 0,18.316 9.636,35.293 25.336,44.703 z m -38.352,-44.703 h -13.027 l 32.562,86.832 13.492,-30.172 c -20.41,-11.558 -33.027,-33.199 -33.027,-56.66 z m -26.68,0.695 -81.554,90.473 h 115.48 z m -69.14,-22.199 c -11.879,-26.215 -42.746,-37.82 -68.961,-25.953 -26.203,11.879 -37.821,42.758 -25.942,68.961 9.821,21.672 33.086,33.937 56.512,29.797 l -15.277,-49.367 c -1.075,-3.45 0.851,-7.09 4.289,-8.157 3.433,-1.058 7.086,0.864 8.144,4.289 l 15.293,49.379 c 26.199,-11.867 37.817,-42.746 25.942,-68.949 z m 222.859,41.688 c -11.148,34.199 -47.91,52.882 -82.098,41.73 l -18.898,42.281 4.891,13.028 h 14.656 v 13.015 h -55.352 c -1.511,0 -2.824,-1.023 -3.176,-2.492 -0.421,-1.754 0.665,-3.504 2.415,-3.926 l 27.542,-6.601 -4.878,-13.024 H 160.641 l 5.222,16.871 c 1.696,5.461 6.735,9.172 12.446,9.172 h 21.402 v 13.028 h -21.402 c -11.422,0 -21.512,-7.43 -24.883,-18.344 l -18.918,-61.106 c -30.356,6.164 -60.848,-9.91 -72.918,-38.433 -14.02,-33.121 1.48,-71.34 34.598,-85.356 33.121,-14.015 71.335,1.469 85.355,34.586 14.016,33.121 -1.469,71.34 -34.602,85.356 l 5.18,16.726 76.988,-85.422 c 2.473,-2.742 5.985,-4.289 9.672,-4.289 h 27.375 c 0.489,-2.437 1.125,-4.824 1.891,-7.168 11.148,-34.203 47.91,-52.886 82.098,-41.734 34.203,11.137 52.871,47.898 41.734,82.102"
       style="fill:#ffffff;fill-rule:nonzero"
       id="path2-3" /></g></g></svg>
