<?xml version="1.0" encoding="UTF-8" standalone="no"?>
<svg
   width="100%"
   height="100%"
   viewBox="0 0 584 908"
   version="1.1"
   xml:space="preserve"
   style="fill-rule:evenodd;clip-rule:evenodd;stroke-linejoin:round;stroke-miterlimit:2;"
   id="svg12346"
   sodipodi:docname="marker_p_bike_green.svg"
   inkscape:version="1.1 (c4e8f9e, 2021-05-24)"
   xmlns:inkscape="http://www.inkscape.org/namespaces/inkscape"
   xmlns:sodipodi="http://sodipodi.sourceforge.net/DTD/sodipodi-0.dtd"
   xmlns="http://www.w3.org/2000/svg"
   xmlns:svg="http://www.w3.org/2000/svg"><defs
   id="defs12350"><rect
     x="134.7033"
     y="472.29304"
     width="307.65568"
     height="164.63736"
     id="rect16204" /></defs><sodipodi:namedview
   id="namedview12348"
   pagecolor="#ffffff"
   bordercolor="#666666"
   borderopacity="1.0"
   inkscape:pageshadow="2"
   inkscape:pageopacity="0.0"
   inkscape:pagecheckerboard="0"
   showgrid="false"
   inkscape:zoom="0.60132159"
   inkscape:cx="291.85714"
   inkscape:cy="454"
   inkscape:window-width="1280"
   inkscape:window-height="772"
   inkscape:window-x="0"
   inkscape:window-y="0"
   inkscape:window-maximized="0"
   inkscape:current-layer="svg12346" />
    <path
   d="M291.583,907.671C291.388,907.382 0,476.351 0,291.583C0,130.654 130.654,0 291.583,0C452.517,0 583.171,130.654 583.171,291.583C583.171,476.351 291.778,907.382 291.583,907.671ZM519.446,325.026C504.154,277.81 453.727,252.015 406.83,267.412L380.908,209.037L387.617,191.049L407.721,191.049L407.721,173.08L331.793,173.08C329.721,173.08 327.92,174.493 327.437,176.521C326.859,178.943 328.349,181.359 330.749,181.941L368.529,191.055L361.838,209.037L202.258,209.037L209.421,185.744C211.747,178.204 218.659,173.08 226.493,173.08L255.851,173.08L255.851,155.093L226.493,155.093C210.826,155.093 196.985,165.351 192.361,180.42L166.411,264.786C124.771,256.276 82.944,278.468 66.388,317.848C47.156,363.577 68.418,416.344 113.846,435.695C159.279,455.045 211.698,433.667 230.929,387.944C250.155,342.215 228.914,289.448 183.465,270.097L190.571,247.004L296.177,364.942C299.569,368.728 304.386,370.864 309.444,370.864L346.995,370.864C347.665,374.229 348.538,377.524 349.589,380.76C364.88,427.983 415.308,453.778 462.204,438.381C509.121,423.004 534.728,372.25 519.451,325.026L519.446,325.026ZM452.386,422.546C414.166,432.47 375.179,409.333 365.315,370.864L438.981,370.864C440.245,370.864 441.472,370.593 442.613,370.092C447.125,368.07 449.156,362.758 447.125,358.216L414.166,283.948C414.992,283.683 415.816,283.462 416.648,283.241C454.851,273.311 493.838,296.437 503.719,334.908C513.579,373.377 490.592,412.618 452.386,422.54L452.386,422.546ZM213.746,382.583C197.451,418.777 155.11,434.799 119.151,418.415C83.208,402.014 67.271,359.381 83.566,323.204C97.037,293.282 128.95,276.349 161.084,282.065L140.129,350.223C138.654,354.986 141.296,360.012 146.012,361.485C150.721,362.946 155.732,360.292 157.183,355.564L178.161,287.388C214.098,303.773 230.035,346.406 213.746,382.583ZM397.792,291.174L425.199,352.893L363.038,352.893C363.038,327.605 376.256,304.166 397.792,291.174ZM345.184,352.893L327.315,352.893L371.98,233.009L390.488,274.666C362.491,290.623 345.184,320.502 345.184,352.893ZM308.587,351.934L196.717,227.022L355.123,227.022L308.587,351.934Z"
   style="fill:#49bcc4;fill-opacity:1"
   id="path12344" />
<text
   xml:space="preserve"
   id="text16202"
   style="fill:black;fill-opacity:1;line-height:1.25;stroke:none;font-family:sans-serif;font-style:normal;font-weight:normal;font-size:40px;white-space:pre;shape-inside:url(#rect16204)" /><text
   xml:space="preserve"
   style="font-style:normal;font-weight:normal;font-size:403.822px;line-height:1.25;font-family:sans-serif;fill:#ffffff;fill-opacity:1;stroke:none;stroke-width:1.24126"
   x="184.44589"
   y="747.11554"
   id="text16452"
   transform="scale(0.99613442,1.0038806)"><tspan
     sodipodi:role="line"
     id="tspan16450"
     x="184.44589"
     y="747.11554"
     style="font-size:403.822px;fill:#ffffff;fill-opacity:1;stroke-width:1.24126">P</tspan></text></svg>
